<?xml version="1.0" encoding="UTF-8"?>
<svg xmlns="http://www.w3.org/2000/svg" viewBox="0 0 1060 820" font-family="'Courier New', monospace" font-size="11">
  <title>天使の鼻 — 全配線図 Baker link. Dev (RP2040) 全周辺機器</title>
  <defs>
    <style>
      .rp-box  { fill:#EEF2FF; stroke:#3949AB; stroke-width:2; }
      .esp-box { fill:#FFF3E0; stroke:#E65100; stroke-width:2; }
      .sen-box { fill:#E8F5E9; stroke:#2E7D32; stroke-width:1.5; }
      .mot-box { fill:#FFF3E0; stroke:#E65100; stroke-width:1.5; }
      .led-box { fill:#F3E5F5; stroke:#7B1FA2; stroke-width:1.5; }
      .leg-box { fill:#FAFAFA; stroke:#999;    stroke-width:1; }
      .tbl-box { fill:#FAFAFA; stroke:#BBB;    stroke-width:1; }
      .pwr-box { fill:#FFEBEE; stroke:#B71C1C; stroke-width:1.5; }

      .spi-line  { stroke:#1565C0; stroke-width:2;   fill:none; }
      .ctrl-line { stroke:#E65100; stroke-width:2;   fill:none; stroke-dasharray:7,3; }
      .opt-line  { stroke:#9E9E9E; stroke-width:1.5; fill:none; stroke-dasharray:5,4; }
      .i2c-line  { stroke:#2E7D32; stroke-width:2;   fill:none; }
      .adc-line  { stroke:#7B1FA2; stroke-width:2;   fill:none; }
      .pwm-line  { stroke:#BF360C; stroke-width:2;   fill:none; }
      .gpio-line { stroke:#33691E; stroke-width:2;   fill:none; }
      .led-line  { stroke:#7B1FA2; stroke-width:2;   fill:none; }
      .pwr-line  { stroke:#C62828; stroke-width:2.5; fill:none; }
      .gnd-line  { stroke:#333;   stroke-width:2.5;  fill:none; }

      .chip-lbl { font-size:13px; font-weight:bold; text-anchor:middle; }
      .sub-lbl  { font-size:9px;  text-anchor:middle; fill:#666; }
      .sec-lbl  { font-size:10px; font-weight:bold; }
      .pin-r    { font-size:9.5px; text-anchor:end; }
      .pin-l    { font-size:9.5px; text-anchor:start; }
      .sig-lbl  { font-size:8.5px; text-anchor:middle; }
      .opt-lbl  { fill:#9E9E9E; font-size:8.5px; font-style:italic; }
      .note     { fill:#555; font-size:9px; }
      .warn-lbl { fill:#C62828; font-size:9px; font-weight:bold; }
    </style>
  </defs>

  <!-- ═══════════ TITLE ═══════════════════════════════════════════════════════ -->
  <text x="530" y="26" text-anchor="middle" font-size="16" font-weight="bold" fill="#1A237E">
    天使の鼻 — 全配線図  Baker link. Dev (RP2040) + 全周辺機器
  </text>
  <text x="530" y="42" text-anchor="middle" font-size="9" fill="#777">
    SPI Mode 3 (CPOL=1 CPHA=1) 10MHz • I2C0 • ADC • PPM(servo) • GPIO  |  点線グレー = 省略可
  </text>

  <!-- ═══════════ SENSOR / ACTUATOR BOXES (left) ═══════════════════════════════ -->

  <!-- HC-SR04 -->
  <rect class="sen-box" x="20" y="108" width="175" height="56" rx="4"/>
  <text x="107" y="126" text-anchor="middle" font-size="11" font-weight="bold" fill="#1B5E20">HC-SR04</text>
  <text x="107" y="140" class="sub-lbl">超音波センサー  障害物回避</text>
  <text x="107" y="153" class="sub-lbl">VCC 3.3V/5V  Trig→ Echo←</text>
  <circle cx="195" cy="128" r="3" fill="#33691E"/>
  <circle cx="195" cy="148" r="3" fill="#33691E"/>

  <!-- BME280 + IMU -->
  <rect class="sen-box" x="20" y="174" width="175" height="62" rx="4"/>
  <text x="107" y="192" text-anchor="middle" font-size="11" font-weight="bold" fill="#1B5E20">BME280 + IMU(opt)</text>
  <text x="107" y="205" class="sub-lbl">温湿度・気圧 / 6軸 加速度+ジャイロ</text>
  <text x="107" y="218" class="sub-lbl">I2C addr 0x76/0x68  VCC 3.3V</text>
  <circle cx="195" cy="193" r="3" fill="#2E7D32"/>
  <circle cx="195" cy="216" r="3" fill="#2E7D32"/>

  <!-- Gravity N20 Motors -->
  <rect class="mot-box" x="20" y="246" width="175" height="82" rx="4"/>
  <text x="107" y="264" text-anchor="middle" font-size="11" font-weight="bold" fill="#BF360C">Gravity N20 ×2</text>
  <text x="107" y="277" class="sub-lbl">統合ドライバ  PPM制御 (サーボ互換)</text>
  <text x="107" y="289" class="sub-lbl">500-2500µs  500Hz  6V 推奨</text>
  <text x="107" y="301" class="sub-lbl">Stall 1.0 kg·cm  640mA/個</text>
  <text x="190" y="274" class="note" text-anchor="end">M1 ←</text>
  <circle cx="195" cy="270" r="3" fill="#BF360C"/>
  <text x="190" y="300" class="note" text-anchor="end">M2 ←</text>
  <circle cx="195" cy="297" r="3" fill="#BF360C"/>

  <!-- MQ-3B -->
  <rect class="sen-box" x="20" y="338" width="175" height="58" rx="4"/>
  <text x="107" y="356" text-anchor="middle" font-size="11" font-weight="bold" fill="#1B5E20">MQ-3B</text>
  <text x="107" y="369" class="sub-lbl">エタノールセンサー</text>
  <text x="107" y="382" class="sub-lbl">10k/15k分圧→ADC  ⚠ ヒーター 5V/150mA</text>
  <circle cx="195" cy="364" r="3" fill="#7B1FA2"/>

  <!-- Status LEDs -->
  <rect class="led-box" x="20" y="406" width="175" height="76" rx="4"/>
  <text x="107" y="424" text-anchor="middle" font-size="11" font-weight="bold" fill="#6A1B9A">Status LEDs ×3</text>
  <text x="107" y="436" class="sub-lbl">GPIO out • 直結 or 330Ω経由</text>
  <text x="190" y="449" class="note" text-anchor="end" fill="#C62828">赤 ←</text>
  <circle cx="195" cy="446" r="3" fill="#C62828"/>
  <text x="190" y="463" class="note" text-anchor="end" fill="#E65100">橙 ←</text>
  <circle cx="195" cy="460" r="3" fill="#E65100"/>
  <text x="190" y="477" class="note" text-anchor="end" fill="#2E7D32">緑 ←</text>
  <circle cx="195" cy="474" r="3" fill="#2E7D32"/>

  <!-- ═══════════ Baker link. Dev (center) ═══════════════════════════════════════ -->
  <rect class="rp-box" x="248" y="58" width="302" height="460" rx="6"/>
  <text class="chip-lbl" x="399" y="80" fill="#1A237E">Baker link. Dev (RP2040)</text>
  <text x="399" y="93" class="sub-lbl">Cortex-M0+ 133MHz • 264KB SRAM • thumbv6m-none-eabi</text>

  <!-- LEFT: section label -->
  <text x="258" y="113" class="sec-lbl" fill="#33691E">◀ Sensors &amp; Actuators</text>

  <!-- Left pins -->
  <circle cx="248" cy="128" r="4" fill="#33691E"/>
  <text x="252" y="132" class="pin-l" fill="#33691E">GP2  Trig out</text>

  <circle cx="248" cy="148" r="4" fill="#33691E"/>
  <text x="252" y="152" class="pin-l" fill="#33691E">GP3  Echo in</text>

  <circle cx="248" cy="193" r="4" fill="#2E7D32"/>
  <text x="252" y="197" class="pin-l" fill="#2E7D32">GP4  I2C0 SDA</text>

  <circle cx="248" cy="216" r="4" fill="#2E7D32"/>
  <text x="252" y="220" class="pin-l" fill="#2E7D32">GP5  I2C0 SCL</text>

  <circle cx="248" cy="270" r="4" fill="#BF360C"/>
  <text x="252" y="274" class="pin-l" fill="#BF360C">GP10 PWM-A (PPM)</text>

  <circle cx="248" cy="297" r="4" fill="#BF360C"/>
  <text x="252" y="301" class="pin-l" fill="#BF360C">GP11 PWM-B (PPM)</text>

  <circle cx="248" cy="364" r="4" fill="#7B1FA2"/>
  <text x="252" y="368" class="pin-l" fill="#7B1FA2">GP26 ADC0 MQ-3B</text>

  <circle cx="248" cy="446" r="4" fill="#C62828"/>
  <text x="252" y="450" class="pin-l" fill="#C62828">GP20 LED 赤</text>

  <circle cx="248" cy="460" r="4" fill="#E65100"/>
  <text x="252" y="464" class="pin-l" fill="#E65100">GP21 LED 橙</text>

  <circle cx="248" cy="474" r="4" fill="#2E7D32"/>
  <text x="252" y="478" class="pin-l" fill="#2E7D32">GP22 LED 緑</text>

  <!-- FREE pins note (bottom of Baker box) -->
  <text x="258" y="498" class="note">空き GP0/1 GP6 GP7 GP8 GP9 GP12 GP27 GP28</text>

  <!-- RIGHT: section label -->
  <text x="540" y="113" class="sec-lbl" fill="#1565C0" text-anchor="end">SPI0 → ESP32-C3 ▶</text>

  <!-- SPI pins (right side) -->
  <circle cx="550" cy="152" r="4" fill="#1565C0"/>
  <text x="546" y="156" class="pin-r" fill="#1565C0">GP18 SPI0 SCK</text>

  <circle cx="550" cy="175" r="4" fill="#1565C0"/>
  <text x="546" y="179" class="pin-r" fill="#1565C0">GP19 SPI0 MOSI</text>

  <circle cx="550" cy="198" r="4" fill="#1565C0"/>
  <text x="546" y="202" class="pin-r" fill="#1565C0">GP16 SPI0 MISO</text>

  <circle cx="550" cy="221" r="4" fill="#1565C0"/>
  <text x="546" y="225" class="pin-r" fill="#1565C0">GP17 CS (GPIO)</text>

  <!-- Control pins -->
  <text x="399" y="258" class="sec-lbl" fill="#E65100" text-anchor="middle">Control</text>

  <circle cx="550" cy="271" r="4" fill="#E65100"/>
  <text x="546" y="275" class="pin-r" fill="#E65100">GP15 Handshake in</text>

  <circle cx="550" cy="295" r="4" fill="#E65100"/>
  <text x="546" y="299" class="pin-r" fill="#E65100">GP13 DataReady in</text>

  <!-- Reset: optional -->
  <circle cx="550" cy="319" r="4" fill="#BDBDBD" stroke="#9E9E9E" stroke-width="1.5"/>
  <text x="546" y="323" class="pin-r opt-lbl">GP14 Reset (省略可)</text>

  <!-- Power -->
  <text x="399" y="355" class="sec-lbl" fill="#B71C1C" text-anchor="middle">Power Out</text>

  <circle cx="550" cy="367" r="4" fill="#C62828"/>
  <text x="546" y="371" class="pin-r" fill="#C62828">3V3 OUT</text>

  <circle cx="550" cy="388" r="4" fill="#333"/>
  <text x="546" y="392" class="pin-r">GND</text>

  <!-- ═══════════ XIAO ESP32-C3 (right) ══════════════════════════════════════════ -->
  <rect class="esp-box" x="680" y="58" width="345" height="420" rx="6"/>
  <text class="chip-lbl" x="852" y="80" fill="#BF360C">XIAO ESP32-C3</text>
  <text x="852" y="93" class="sub-lbl">esp-hosted-mcu firmware • SPI Slave • WiFi 802.11 b/g/n</text>

  <text x="698" y="113" class="sec-lbl" fill="#1565C0">SPI Slave</text>

  <circle cx="680" cy="152" r="4" fill="#1565C0"/>
  <text x="684" y="156" class="pin-l" fill="#1565C0">GPIO6  (D4) FSPICLK</text>

  <circle cx="680" cy="175" r="4" fill="#1565C0"/>
  <text x="684" y="179" class="pin-l" fill="#1565C0">GPIO7  (D5) FSPID  MOSI</text>

  <circle cx="680" cy="198" r="4" fill="#1565C0"/>
  <text x="684" y="202" class="pin-l" fill="#1565C0">GPIO5  (D3) MISO</text>

  <circle cx="680" cy="221" r="4" fill="#1565C0"/>
  <text x="684" y="225" class="pin-l" fill="#1565C0">GPIO10 (D10) FSPICS0</text>

  <text x="698" y="258" class="sec-lbl" fill="#E65100">Control</text>

  <circle cx="680" cy="271" r="4" fill="#E65100"/>
  <text x="684" y="275" class="pin-l" fill="#E65100">GPIO3  (D1) Handshake out (Pull::Down)</text>

  <circle cx="680" cy="295" r="4" fill="#E65100"/>
  <text x="684" y="299" class="pin-l" fill="#E65100">GPIO4  (D2) DataReady  out (Pull::Down)</text>

  <!-- Reset: optional on ESP32 side too -->
  <circle cx="680" cy="319" r="4" fill="#BDBDBD" stroke="#9E9E9E" stroke-width="1.5"/>
  <text x="684" y="323" class="pin-l opt-lbl">GPIO21 (D6) Reset in  ← 省略可</text>

  <text x="698" y="353" class="sec-lbl" fill="#B71C1C">Power</text>

  <circle cx="680" cy="367" r="4" fill="#C62828"/>
  <text x="684" y="371" class="pin-l" fill="#C62828">3V3 IN  (Baker 3V3 OUT から)</text>

  <circle cx="680" cy="388" r="4" fill="#333"/>
  <text x="684" y="392" class="pin-l">GND</text>

  <!-- WiFi antenna -->
  <text x="698" y="413" class="sec-lbl" fill="#E65100">WiFi</text>
  <line x1="995" y1="425" x2="995" y2="395" stroke="#E65100" stroke-width="2"/>
  <line x1="985" y1="400" x2="995" y2="395" stroke="#E65100" stroke-width="2"/>
  <line x1="1005" y1="400" x2="995" y2="395" stroke="#E65100" stroke-width="2"/>
  <line x1="980" y1="390" x2="995" y2="380" stroke="#E65100" stroke-width="1.5"/>
  <line x1="1010" y1="390" x2="995" y2="380" stroke="#E65100" stroke-width="1.5"/>

  <!-- ESP32 notes -->
  <text x="698" y="448" class="note" fill="#E65100">⚠ GPIO2/8/9: ストラッピング（未使用）</text>
  <text x="698" y="461" class="note">GPIO20 (D7): UART RX デバッグ確保</text>
  <text x="698" y="473" class="note">GPIO4-7: SPI/DR 信号で占有 → JTAG 不可</text>

  <!-- ═══════════ SIGNAL WIRES: Sensors → Baker ═══════════════════════════════════ -->

  <!-- HC-SR04 Trig -->
  <line class="gpio-line" x1="195" y1="128" x2="248" y2="128"/>
  <text x="221" y="124" class="sig-lbl" fill="#33691E">Trig</text>

  <!-- HC-SR04 Echo -->
  <line class="gpio-line" x1="195" y1="148" x2="248" y2="148"/>
  <text x="221" y="144" class="sig-lbl" fill="#33691E">Echo</text>

  <!-- BME280+IMU SDA -->
  <line class="i2c-line" x1="195" y1="193" x2="248" y2="193"/>
  <text x="221" y="189" class="sig-lbl" fill="#2E7D32">SDA</text>

  <!-- BME280+IMU SCL -->
  <line class="i2c-line" x1="195" y1="216" x2="248" y2="216"/>
  <text x="221" y="212" class="sig-lbl" fill="#2E7D32">SCL</text>

  <!-- N20 Motor A PPM -->
  <line class="pwm-line" x1="195" y1="270" x2="248" y2="270"/>
  <text x="221" y="266" class="sig-lbl" fill="#BF360C">PPM</text>

  <!-- N20 Motor B PPM -->
  <line class="pwm-line" x1="195" y1="297" x2="248" y2="297"/>
  <text x="221" y="293" class="sig-lbl" fill="#BF360C">PPM</text>

  <!-- MQ-3B AOUT → 10kΩ/15kΩ voltage divider → GP26 (scales 5V→3V, protects RP2040 ADC) -->
  <line class="adc-line" x1="195" y1="364" x2="202" y2="364"/>
  <rect x="202" y="360" width="10" height="7" fill="white" stroke="#7B1FA2" stroke-width="1.2"/>
  <text x="207" y="358" font-size="7" fill="#7B1FA2" text-anchor="middle">10k</text>
  <line class="adc-line" x1="212" y1="364" x2="221" y2="364"/>
  <circle cx="221" cy="364" r="2.5" fill="#7B1FA2"/>
  <line class="adc-line" x1="221" y1="364" x2="248" y2="364"/>
  <line class="adc-line" x1="221" y1="366" x2="221" y2="371"/>
  <rect x="217" y="371" width="10" height="7" fill="white" stroke="#7B1FA2" stroke-width="1.2"/>
  <text x="229" y="377" font-size="7" fill="#7B1FA2">15k</text>
  <line x1="221" y1="378" x2="221" y2="383" stroke="#555" stroke-width="1.5" fill="none"/>
  <line x1="215" y1="383" x2="227" y2="383" stroke="#555" stroke-width="1.8"/>
  <line x1="217" y1="386" x2="225" y2="386" stroke="#555" stroke-width="1.4"/>
  <line x1="219" y1="389" x2="223" y2="389" stroke="#555" stroke-width="1.0"/>
  <text x="196" y="358" font-size="8" fill="#7B1FA2">AOUT</text>

  <!-- LEDs -->
  <line class="led-line" x1="195" y1="446" x2="248" y2="446"/>
  <text x="221" y="442" class="sig-lbl" fill="#C62828">R</text>
  <line class="led-line" x1="195" y1="460" x2="248" y2="460"/>
  <text x="221" y="456" class="sig-lbl" fill="#E65100">O</text>
  <line class="led-line" x1="195" y1="474" x2="248" y2="474"/>
  <text x="221" y="470" class="sig-lbl" fill="#2E7D32">G</text>

  <!-- ═══════════ SIGNAL WIRES: Baker → ESP32-C3 ════════════════════════════════ -->

  <!-- SCK -->
  <line class="spi-line" x1="552" y1="152" x2="678" y2="152"/>
  <text x="615" y="148" class="sig-lbl" fill="#1565C0" font-weight="bold">SCK</text>

  <!-- MOSI -->
  <line class="spi-line" x1="552" y1="175" x2="678" y2="175"/>
  <text x="615" y="171" class="sig-lbl" fill="#1565C0" font-weight="bold">MOSI</text>

  <!-- MISO -->
  <line class="spi-line" x1="552" y1="198" x2="678" y2="198"/>
  <text x="615" y="194" class="sig-lbl" fill="#1565C0" font-weight="bold">MISO</text>

  <!-- CS -->
  <line class="spi-line" x1="552" y1="221" x2="678" y2="221"/>
  <text x="615" y="217" class="sig-lbl" fill="#1565C0" font-weight="bold">CS#</text>

  <!-- Handshake -->
  <line class="ctrl-line" x1="552" y1="271" x2="678" y2="271"/>
  <text x="615" y="266" class="sig-lbl" fill="#E65100" font-weight="bold">Handshake</text>

  <!-- DataReady -->
  <line class="ctrl-line" x1="552" y1="295" x2="678" y2="295"/>
  <text x="615" y="290" class="sig-lbl" fill="#E65100" font-weight="bold">DataReady</text>

  <!-- Reset (optional, dashed gray) -->
  <line class="opt-line" x1="552" y1="319" x2="678" y2="319"/>
  <text x="615" y="314" class="sig-lbl opt-lbl">Reset (opt)</text>

  <!-- 3V3 -->
  <line class="pwr-line" x1="552" y1="367" x2="678" y2="367"/>
  <text x="615" y="363" class="sig-lbl" fill="#C62828" font-weight="bold">3.3V</text>

  <!-- GND -->
  <line class="gnd-line" x1="552" y1="388" x2="678" y2="388"/>
  <text x="615" y="384" class="sig-lbl" font-weight="bold">GND</text>

  <!-- ═══════════ PIN AUDIT TABLE ══════════════════════════════════════════════════ -->
  <rect class="tbl-box" x="20" y="542" width="700" height="175" rx="5"/>
  <text x="30" y="560" font-size="11" font-weight="bold" fill="#333">RP2040 ピン割当一覧</text>
  <text x="650" y="560" font-size="9" fill="#777" text-anchor="end">使用 16 / 省略可 1 / 空き 9  (GP0-28)</text>

  <!-- Headers -->
  <line x1="25" y1="565" x2="710" y2="565" stroke="#CCC" stroke-width="0.8"/>
  <text x="32"  y="577" font-size="9" font-weight="bold" fill="#555">GP</text>
  <text x="65"  y="577" font-size="9" font-weight="bold" fill="#555">機能</text>
  <text x="185" y="577" font-size="9" font-weight="bold" fill="#555">接続先</text>
  <text x="300" y="577" font-size="9" font-weight="bold" fill="#555">状態</text>
  <text x="370" y="577" font-size="9" font-weight="bold" fill="#555">GP</text>
  <text x="403" y="577" font-size="9" font-weight="bold" fill="#555">機能</text>
  <text x="523" y="577" font-size="9" font-weight="bold" fill="#555">接続先</text>
  <text x="638" y="577" font-size="9" font-weight="bold" fill="#555">状態</text>
  <line x1="25" y1="580" x2="710" y2="580" stroke="#CCC" stroke-width="0.8"/>

  <!-- Left column -->
  <text x="32"  y="592" class="note">GP0</text>  <text x="65"  y="592" class="note">UART0 TX</text>   <text x="185" y="592" class="note">—</text>              <text x="300" y="592" class="note" fill="#2E7D32">空き</text>
  <text x="32"  y="604" class="note">GP1</text>  <text x="65"  y="604" class="note">UART0 RX</text>   <text x="185" y="604" class="note">—</text>              <text x="300" y="604" class="note" fill="#2E7D32">空き</text>
  <text x="32"  y="616" class="note">GP2</text>  <text x="65"  y="616" class="note">GPIO Trig</text>  <text x="185" y="616" class="note">HC-SR04 Trig</text>  <text x="300" y="616" class="note" fill="#1565C0">使用</text>
  <text x="32"  y="628" class="note">GP3</text>  <text x="65"  y="628" class="note">GPIO Echo</text>  <text x="185" y="628" class="note">HC-SR04 Echo</text>  <text x="300" y="628" class="note" fill="#1565C0">使用</text>
  <text x="32"  y="640" class="note">GP4</text>  <text x="65"  y="640" class="note">I2C0 SDA</text>   <text x="185" y="640" class="note">BME280 + IMU</text>  <text x="300" y="640" class="note" fill="#1565C0">使用</text>
  <text x="32"  y="652" class="note">GP5</text>  <text x="65"  y="652" class="note">I2C0 SCL</text>   <text x="185" y="652" class="note">BME280 + IMU</text>  <text x="300" y="652" class="note" fill="#1565C0">使用</text>
  <text x="32"  y="664" class="note">GP6</text>  <text x="65"  y="664" class="note">—</text>           <text x="185" y="664" class="note">—</text>              <text x="300" y="664" class="note" fill="#2E7D32">空き</text>
  <text x="32"  y="676" class="note">GP7</text>  <text x="65"  y="676" class="note">—</text>           <text x="185" y="676" class="note">—</text>              <text x="300" y="676" class="note" fill="#2E7D32">空き</text>
  <text x="32"  y="688" class="note">GP8</text>  <text x="65"  y="688" class="note">—</text>           <text x="185" y="688" class="note">—</text>              <text x="300" y="688" class="note" fill="#2E7D32">空き</text>
  <text x="32"  y="700" class="note">GP9</text>  <text x="65"  y="700" class="note">—</text>           <text x="185" y="700" class="note">—</text>              <text x="300" y="700" class="note" fill="#2E7D32">空き</text>
  <text x="32"  y="712" class="note">GP10</text> <text x="65"  y="712" class="note">PWM-A PPM</text>  <text x="185" y="712" class="note">N20 Motor A</text>   <text x="300" y="712" class="note" fill="#1565C0">使用</text>

  <!-- Right column -->
  <text x="370" y="592" class="note">GP11</text> <text x="403" y="592" class="note">PWM-B PPM</text>  <text x="523" y="592" class="note">N20 Motor B</text>   <text x="638" y="592" class="note" fill="#1565C0">使用</text>
  <text x="370" y="604" class="note">GP12</text> <text x="403" y="604" class="note">—</text>           <text x="523" y="604" class="note">—</text>              <text x="638" y="604" class="note" fill="#2E7D32">空き</text>
  <text x="370" y="616" class="note">GP13</text> <text x="403" y="616" class="note">GPIO in DR</text>  <text x="523" y="616" class="note">ESP32 DataReady</text><text x="638" y="616" class="note" fill="#1565C0">使用</text>
  <text x="370" y="628" class="note">GP14</text> <text x="403" y="628" class="note">GPIO out RST</text><text x="523" y="628" class="note">ESP32 Reset</text>   <text x="638" y="628" class="note" fill="#9E9E9E">省略可</text>
  <text x="370" y="640" class="note">GP15</text> <text x="403" y="640" class="note">GPIO in HS</text>  <text x="523" y="640" class="note">ESP32 Handshake</text><text x="638" y="640" class="note" fill="#1565C0">使用</text>
  <text x="370" y="652" class="note">GP16</text> <text x="403" y="652" class="note">SPI0 MISO</text>  <text x="523" y="652" class="note">ESP32 GPIO5</text>   <text x="638" y="652" class="note" fill="#1565C0">使用</text>
  <text x="370" y="664" class="note">GP17</text> <text x="403" y="664" class="note">SPI0 CS</text>    <text x="523" y="664" class="note">ESP32 GPIO10</text>  <text x="638" y="664" class="note" fill="#1565C0">使用</text>
  <text x="370" y="676" class="note">GP18</text> <text x="403" y="676" class="note">SPI0 SCK</text>   <text x="523" y="676" class="note">ESP32 GPIO6</text>   <text x="638" y="676" class="note" fill="#1565C0">使用</text>
  <text x="370" y="688" class="note">GP19</text> <text x="403" y="688" class="note">SPI0 MOSI</text>  <text x="523" y="688" class="note">ESP32 GPIO7</text>   <text x="638" y="688" class="note" fill="#1565C0">使用</text>
  <text x="370" y="700" class="note">GP20-22</text><text x="403" y="700" class="note">GPIO LED</text>  <text x="523" y="700" class="note">赤/橙/緑 LED</text>  <text x="638" y="700" class="note" fill="#1565C0">使用</text>
  <text x="370" y="712" class="note">GP26</text> <text x="403" y="712" class="note">ADC0</text>        <text x="523" y="712" class="note">MQ-3B AOUT</text>    <text x="638" y="712" class="note" fill="#1565C0">使用</text>

  <!-- ═══════════ POWER NOTES ═══════════════════════════════════════════════════ -->
  <rect class="pwr-box" x="730" y="542" width="305" height="175" rx="5"/>
  <text x="742" y="560" font-size="11" font-weight="bold" fill="#B71C1C">電源メモ</text>

  <text x="742" y="578" class="note" font-weight="bold" fill="#C62828">3.3V (Baker 3V3 OUT):</text>
  <text x="742" y="591" class="note">• XIAO ESP32-C3 VCC</text>
  <text x="742" y="603" class="note">• BME280 VCC</text>
  <text x="742" y="615" class="note">• IMU VCC (オプション)</text>
  <text x="742" y="627" class="note">• HC-SR04 (3.3V対応品のみ)</text>

  <text x="742" y="645" class="note" font-weight="bold" fill="#C62828">5-6V (外部電源 / Li-Po 2S 等):</text>
  <text x="742" y="658" class="note">• Gravity N20 VCC × 2</text>
  <text x="742" y="670" class="note">  (定格6V、Stall 640mA×2=1.28A)</text>
  <text x="742" y="682" class="note">• MQ-3B ヒーター (5V 150mA)</text>

  <text x="742" y="700" class="warn-lbl">⚠ Reset 省略時:</text>
  <text x="742" y="712" class="note">ESP32-C3 を先に起動するか、</text>
  <text x="742" y="724" class="note">同時電源 ON で対応可。</text>

  <!-- ═══════════ LEGEND ══════════════════════════════════════════════════════════ -->
  <rect class="leg-box" x="20" y="730" width="1015" height="60" rx="4"/>
  <text x="32" y="748" font-size="10" font-weight="bold" fill="#333">凡例</text>

  <line x1="32"  y1="762" x2="68"  y2="762" class="spi-line"/>
  <text x="74"  y="766" font-size="9" fill="#555">SPI バス</text>

  <line x1="140" y1="762" x2="176" y2="762" class="ctrl-line"/>
  <text x="182" y="766" font-size="9" fill="#555">制御信号</text>

  <line x1="252" y1="762" x2="288" y2="762" class="opt-line"/>
  <text x="294" y="766" font-size="9" fill="#9E9E9E">省略可</text>

  <line x1="348" y1="762" x2="384" y2="762" class="i2c-line"/>
  <text x="390" y="766" font-size="9" fill="#555">I2C</text>

  <line x1="425" y1="762" x2="461" y2="762" class="pwm-line"/>
  <text x="467" y="766" font-size="9" fill="#555">PPM/PWM</text>

  <line x1="543" y1="762" x2="579" y2="762" class="gpio-line"/>
  <text x="585" y="766" font-size="9" fill="#555">GPIO</text>

  <line x1="622" y1="762" x2="658" y2="762" class="adc-line"/>
  <text x="664" y="766" font-size="9" fill="#555">ADC</text>

  <line x1="700" y1="762" x2="736" y2="762" class="pwr-line"/>
  <text x="742" y="766" font-size="9" fill="#555">3.3V</text>

  <line x1="780" y1="762" x2="816" y2="762" class="gnd-line"/>
  <text x="822" y="766" font-size="9" fill="#555">GND</text>

  <text x="32" y="782" font-size="9" fill="#777">
    Pull::Down on Handshake/DataReady • embassy-net-esp-hosted-mcu (path dep) • N20 PPM: 500-2500µs @500Hz  FWD&lt;1400 STOP 1400-1600 REV&gt;1600
  </text>
</svg>
